Patient4_TMGait_0pt3_03_left_17_EMG.mot
version=1
nRows=16
nColumns=33
inDegrees=no
endheader
time	1LAddLong	2LGlutMax	3LGlutMed	4LIliopsoas	5LSemiMemb	6LBicFemLong	7LRecFem	8LVastMed	9LVastLat	10LGasMed	11LTibAnt	12lTibPost	13LPeroneusLong	14LSol	15LExtDigLong	16LFlexDigLong	17RAddLong	18RGlutMax	19RGlutMed	20RIliopsoas	21RSemiMemb	22RBicFemLong	23RRecFem	24RVastMed	25RVastLat	26RGasMed	27RTibAnt	28RTibPost	29RPeroneusLong	30RSol	31RExtDigLong	32RFlexDigLong
31.435	-0.010681	-0.011749	-0.005798	0.021362	-0.020142	-0.035248	-0.022736	0.007019	0.033569	0.021362	0.15243	-0.016785	-0.028534	0.034637	0.016785	0.007477	0.046997	0.038605	0.066376	0.063324	-0.22492	0.024261	0.17105	-0.14786	-0.03952	0.021667	0.08667	-0.018158	-0.40131	0.001526	-0.010223	-0.005493
31.436	0.000153	-0.012207	-0.045013	0.012665	-0.010071	-0.012512	-0.029907	0	0.024109	0.001831	-0.1297	-0.017548	0.049133	-0.021057	-0.087128	0.002136	-0.02121	0.034485	0.025635	0.11963	-0.32059	0.12299	0.2269	-0.086975	-0.038147	0.005188	0.075531	-0.017853	0.27176	0.014343	-0.001678	-0.00946
31.437	0.010681	-0.005035	-0.032196	0.007782	0.017242	-0.007324	-0.003357	-0.006409	0.027466	-0.021057	-0.03006	-0.010529	0.04837	-0.014496	-0.10117	-0.014038	-0.001221	0.011292	0.044098	0.085602	-0.13275	-0.017395	0.17899	0.000763	-0.003357	-0.003357	0.13947	-0.021057	0.10819	-0.058441	-0.004578	-0.010376
31.438	0.00885	0.015411	-0.014343	0.011597	0.021515	0.003052	-0.052032	-0.002136	0.023041	-0.01358	-0.06958	-0.015259	0.033417	-0.083008	-0.12268	-0.009766	-0.003662	0.003052	-0.061493	0.063324	0.18097	-0.11536	0.096893	-0.071564	0.069122	0.005798	0.081482	0.033722	1.1279	-0.16022	0.006561	-0.005341
31.439	0.018311	0.009918	-0.013885	0.011597	-0.014954	-0.014801	-0.02121	-0.004578	0.031433	0.012665	-0.22507	-0.013885	0.036621	-0.075531	-0.10468	-0.001221	-0.008545	-0.06897	-0.06897	0.051575	0.20752	-0.11322	-0.019379	-0.067139	0.075226	0.014801	0.051727	0.024719	-0.11459	-0.20645	0.002747	-0.003204
31.44	0.010681	-0.024109	-0.018311	0.001831	0.009155	-0.028839	-0.032654	-0.001678	0.016785	-0.003204	-0.18097	-0.016327	0.007782	-0.083771	-0.091248	-0.009766	0.037842	-0.076599	0.13718	-0.085754	0.037994	-0.046539	-0.036774	-0.03418	0.027618	0.002441	0.010986	0.003967	-0.64819	-0.11383	-0.007629	-0.006866
31.441	0.010223	0.003662	-0.037384	-0.011139	0.0354	-0.036774	-0.031433	-0.002136	0.024872	-0.006866	-0.13092	-0.014648	0.002899	-0.05127	-0.11566	-0.008392	0.06073	-0.065765	0.19531	-0.0737	-0.06897	-0.03067	-0.095062	-0.093231	0.029449	-0.001984	-0.00946	-0.005035	-0.73517	0.012512	-0.005646	-0.005188
31.442	0.010376	0.019836	-0.043182	-0.023193	0.018005	-0.022888	-0.014496	-0.004272	0.009003	0.00351	-0.003357	-0.018158	0.009308	-0.036774	-0.071869	-0.012054	0.045624	-0.035858	0.11459	-0.059967	0.041046	-0.041962	-0.088959	-0.052032	0.03418	-0.001678	-0.009918	-0.002289	-0.39505	0.047455	-0.001526	-0.006714
31.443	0.003052	-0.000153	-0.005341	-0.017395	0.005493	0.001831	0.001221	-0.000458	0.01236	0.009308	0.13825	-0.021667	0.000305	-0.042877	0.24414	-0.010986	0.032501	-0.020905	0.081635	0.041046	0.23712	-0.070953	0.002899	0.038452	0.056458	0.011292	-0.32135	-0.001221	-0.45364	-0.15915	0.004425	-0.00946
31.444	0.00351	-0.00351	0.003052	-0.022888	0.006409	0.002289	-0.01297	-0.002747	0.018616	-0.034485	0.066223	-0.011139	0.027161	-0.031128	0.039215	-0.00885	0.007172	-0.049591	0.019684	0.088348	0.086212	0.00061	0.076752	0.081482	0.064392	0.008087	-0.513	-0.001526	0.35156	-0.18051	-0.000763	-0.006714
31.445	0.01358	0.021362	-0.06073	-0.000305	0.005798	0.015564	-0.018158	-0.000763	0.002594	-0.028992	-0.041962	-0.018463	0.018005	-0.025024	0.16419	-0.003357	0.007629	-0.015564	0.16617	0.032654	-0.16693	0.079346	0.073547	0.058136	0.023346	-0.012054	-0.17578	-0.007782	0.23834	0.014191	-0.005493	-0.014343
31.446	0.007935	-0.024414	-0.10544	0.020905	0.007935	0.020905	-0.003662	0.006256	-0.003052	-0.014648	0.000916	-0.015259	-0.016022	-0.006866	0.63629	-0.001221	0.005341	-0.033417	0.22751	-0.041504	-0.21072	-0.025787	0.085297	0.064545	0.018005	-0.018158	-0.04837	-0.005646	-0.004272	0.010071	-0.006561	-0.010376
31.447	0.00885	0.025482	-0.10925	0.031128	0.009003	0.013123	-0.020905	-0.002136	0.003357	-0.022888	-0.087585	-0.019073	-0.000458	0.001373	0.10895	-0.000305	0.009155	0.072479	0.39749	-0.035095	-0.085449	-0.046844	0.042419	0.045624	0.027466	-0.009613	0.03067	-0.002899	0.058289	-0.067596	-0.004578	-0.007782
31.448	0.00351	0.016937	-0.090179	0.024261	0.008087	0.007019	-0.018616	-0.001984	0.006561	0.000305	-0.016785	-0.02182	-0.011139	0.022278	-0.50781	-0.001526	-0.014801	0.09201	0.27313	-0.039825	0.10208	-0.044861	0.023346	0.063782	0.04776	-0.007629	0.10834	-0.005035	0.89157	-0.053864	-0.009308	-0.002899
31.449	0.003815	-0.027771	-0.002136	-0.002441	0.00061	-0.003967	-0.007019	-0.002899	-0.004425	0.001526	0.003967	-0.014496	-0.013275	0.056763	-0.27756	-0.002136	0.016479	0.092621	-0.093994	-0.19409	0.095062	0.013275	0.017853	0.006866	0.027161	-0.008087	0.029602	-0.000305	0.46661	0.069275	0.001831	-0.002289
31.45	0.011902	-0.005493	0.07843	0.006714	-0.005035	-0.028076	-0.006256	0.001526	0.014191	0.007324	0.020142	-0.020447	0.019379	0.028076	-0.25971	-0.003662	0.037842	0.10529	-0.45532	-0.068817	0.013123	-0.090942	0.03006	-0.031891	0.023346	-0.010834	0.298	-0.003357	0.30548	0.13855	-0.008545	-0.005493
